<svg width="20" height="20" viewBox="0 0 20 20" fill="none" xmlns="http://www.w3.org/2000/svg">
<path d="M10 1.87219C8.02123 1.87227 6.10705 2.57645 4.59997 3.85873C3.09289 5.14101 2.09125 6.91771 1.77427 8.87093C1.4573 10.8241 1.84568 12.8264 2.86991 14.5195C3.89415 16.2126 5.4874 17.4859 7.3646 18.1118C7.78126 18.1847 7.93751 17.9347 7.93751 17.7159C7.93751 17.518 7.92709 16.8618 7.92709 16.1639C5.83333 16.5493 5.29166 15.6535 5.125 15.1847C4.94006 14.7288 4.64689 14.3248 4.27083 14.0076C3.97916 13.8514 3.5625 13.4659 4.26041 13.4555C4.52689 13.4845 4.78249 13.5772 5.00552 13.7259C5.22856 13.8746 5.41247 14.0748 5.54166 14.3097C5.65564 14.5144 5.8089 14.6947 5.99266 14.8401C6.17641 14.9855 6.38706 15.0932 6.61252 15.1571C6.83799 15.221 7.07384 15.2397 7.30656 15.2123C7.53929 15.1848 7.76431 15.1117 7.96873 14.9972C8.00481 14.5735 8.19361 14.1774 8.5 13.8826C6.64583 13.6743 4.70833 12.9555 4.70833 9.76805C4.69662 8.93984 5.00224 8.13853 5.5625 7.52847C5.30773 6.80865 5.33754 6.0187 5.64583 5.32013C5.64583 5.32013 6.34372 5.10138 7.9375 6.1743C9.30107 5.79928 10.7406 5.79928 12.1042 6.1743C13.6979 5.09097 14.3958 5.32013 14.3958 5.32013C14.7042 6.01869 14.734 6.80866 14.4792 7.52847C15.0411 8.13749 15.347 8.93949 15.3333 9.76805C15.3333 12.9659 13.3854 13.6743 11.5312 13.8826C11.7301 14.0842 11.8833 14.3262 11.9803 14.5922C12.0774 14.8582 12.1161 15.142 12.0937 15.4243C12.0937 16.5389 12.0833 17.4347 12.0833 17.716C12.0833 17.9347 12.2396 18.1951 12.6562 18.1118C14.5301 17.4809 16.1188 16.2045 17.1387 14.5106C18.1585 12.8166 18.5432 10.8154 18.2241 8.86406C17.9049 6.91273 16.9026 5.13834 15.3962 3.85762C13.8898 2.5769 11.9773 1.87322 10 1.87219V1.87219Z" fill="white"/>
</svg>
