<svg width="20" height="20" viewBox="0 0 20 20" fill="none" xmlns="http://www.w3.org/2000/svg">
<path d="M10 8.77234H18.0915C18.1808 9.27085 18.2254 9.74704 18.2254 10.2009C18.2254 11.8155 17.8869 13.2571 17.2098 14.5257C16.5327 15.7943 15.5673 16.7857 14.3136 17.5C13.0599 18.2143 11.622 18.5714 10 18.5714C8.83185 18.5714 7.7195 18.3464 6.66295 17.8962C5.6064 17.4461 4.69494 16.8378 3.92857 16.0714C3.1622 15.3051 2.55395 14.3936 2.1038 13.3371C1.65365 12.2805 1.42857 11.1682 1.42857 10C1.42857 8.83186 1.65365 7.71951 2.1038 6.66296C2.55395 5.60642 3.1622 4.69496 3.92857 3.92859C4.69494 3.16222 5.6064 2.55396 6.66295 2.10381C7.7195 1.65366 8.83185 1.42859 10 1.42859C12.2321 1.42859 14.1481 2.17636 15.7478 3.67189L13.4152 5.9152C12.5 5.02978 11.3616 4.58707 10 4.58707C9.04018 4.58707 8.1529 4.82889 7.33817 5.31252C6.52344 5.79615 5.87798 6.45277 5.40179 7.28238C4.9256 8.112 4.6875 9.01787 4.6875 10C4.6875 10.9822 4.9256 11.888 5.40179 12.7177C5.87798 13.5473 6.52344 14.2039 7.33817 14.6875C8.1529 15.1711 9.04018 15.413 10 15.413C10.6473 15.413 11.2426 15.3237 11.7857 15.1451C12.3289 14.9665 12.7753 14.7433 13.125 14.4755C13.4747 14.2076 13.7798 13.9025 14.0402 13.5603C14.3006 13.218 14.4922 12.8944 14.615 12.5893C14.7377 12.2842 14.8214 11.9941 14.8661 11.7188H10V8.77234Z" fill="white"/>
</svg>
