<svg width="690" height="140" viewBox="0 0 690 140" fill="none" xmlns="http://www.w3.org/2000/svg">
<path d="M221.333 36.9524V40.019C221.329 47.2071 219.002 54.2013 214.698 59.9585C210.394 65.7156 204.344 69.9273 197.451 71.9654C190.558 74.0034 183.191 73.7587 176.448 71.2677C169.706 68.7766 163.949 64.1727 160.037 58.1426C156.124 52.1125 154.266 44.9793 154.739 37.8068C155.212 30.6343 157.991 23.8068 162.661 18.3426C167.331 12.8784 173.643 9.07031 180.654 7.48619C187.665 5.90207 195.001 6.62683 201.567 9.55237M221.333 13.3333L188 46.7L178 36.7" stroke="black" stroke-width="2" stroke-linecap="round" stroke-linejoin="round"/>
<path d="M255.131 25.9702V18.3636H290.969V25.9702H277.609V62H268.49V25.9702H255.131ZM306.741 62.6392C303.431 62.6392 300.569 61.9361 298.154 60.5298C295.754 59.1094 293.9 57.1349 292.593 54.6065C291.287 52.0639 290.633 49.1165 290.633 45.7642C290.633 42.3835 291.287 39.429 292.593 36.9006C293.9 34.358 295.754 32.3835 298.154 30.9773C300.569 29.5568 303.431 28.8466 306.741 28.8466C310.051 28.8466 312.906 29.5568 315.306 30.9773C317.721 32.3835 319.582 34.358 320.889 36.9006C322.196 39.429 322.849 42.3835 322.849 45.7642C322.849 49.1165 322.196 52.0639 320.889 54.6065C319.582 57.1349 317.721 59.1094 315.306 60.5298C312.906 61.9361 310.051 62.6392 306.741 62.6392ZM306.784 55.608C308.289 55.608 309.547 55.1818 310.555 54.3295C311.564 53.4631 312.324 52.2841 312.835 50.7926C313.36 49.3011 313.623 47.6037 313.623 45.7003C313.623 43.7969 313.36 42.0994 312.835 40.608C312.324 39.1165 311.564 37.9375 310.555 37.071C309.547 36.2045 308.289 35.7713 306.784 35.7713C305.264 35.7713 303.985 36.2045 302.949 37.071C301.926 37.9375 301.152 39.1165 300.626 40.608C300.115 42.0994 299.859 43.7969 299.859 45.7003C299.859 47.6037 300.115 49.3011 300.626 50.7926C301.152 52.2841 301.926 53.4631 302.949 54.3295C303.985 55.1818 305.264 55.608 306.784 55.608ZM344.39 62H328.922V18.3636H344.518C348.907 18.3636 352.686 19.2372 355.853 20.9844C359.021 22.7173 361.457 25.2102 363.162 28.4631C364.88 31.7159 365.74 35.608 365.74 40.1392C365.74 44.6847 364.88 48.5909 363.162 51.858C361.457 55.125 359.007 57.6321 355.811 59.3793C352.629 61.1264 348.822 62 344.39 62ZM338.147 54.0952H344.007C346.734 54.0952 349.028 53.6122 350.889 52.6463C352.764 51.6662 354.17 50.1534 355.108 48.108C356.059 46.0483 356.535 43.392 356.535 40.1392C356.535 36.9148 356.059 34.2798 355.108 32.2344C354.17 30.1889 352.771 28.6832 350.91 27.7173C349.049 26.7514 346.755 26.2685 344.028 26.2685H338.147V54.0952ZM387.19 62.6392C383.881 62.6392 381.018 61.9361 378.604 60.5298C376.203 59.1094 374.349 57.1349 373.043 54.6065C371.736 52.0639 371.082 49.1165 371.082 45.7642C371.082 42.3835 371.736 39.429 373.043 36.9006C374.349 34.358 376.203 32.3835 378.604 30.9773C381.018 29.5568 383.881 28.8466 387.19 28.8466C390.5 28.8466 393.355 29.5568 395.756 30.9773C398.17 32.3835 400.031 34.358 401.338 36.9006C402.645 39.429 403.298 42.3835 403.298 45.7642C403.298 49.1165 402.645 52.0639 401.338 54.6065C400.031 57.1349 398.17 59.1094 395.756 60.5298C393.355 61.9361 390.5 62.6392 387.19 62.6392ZM387.233 55.608C388.739 55.608 389.996 55.1818 391.004 54.3295C392.013 53.4631 392.773 52.2841 393.284 50.7926C393.81 49.3011 394.072 47.6037 394.072 45.7003C394.072 43.7969 393.81 42.0994 393.284 40.608C392.773 39.1165 392.013 37.9375 391.004 37.071C389.996 36.2045 388.739 35.7713 387.233 35.7713C385.713 35.7713 384.435 36.2045 383.398 37.071C382.375 37.9375 381.601 39.1165 381.075 40.608C380.564 42.0994 380.308 43.7969 380.308 45.7003C380.308 47.6037 380.564 49.3011 381.075 50.7926C381.601 52.2841 382.375 53.4631 383.398 54.3295C384.435 55.1818 385.713 55.608 387.233 55.608ZM430.779 62H420.892L435.956 18.3636H447.846L462.888 62H453.002L442.071 28.3352H441.73L430.779 62ZM430.161 44.848H453.513V52.0497H430.161V44.848ZM467.97 74.2727V29.2727H476.919V34.7699H477.324C477.721 33.8892 478.297 32.9943 479.049 32.0852C479.816 31.1619 480.811 30.3949 482.032 29.7841C483.268 29.1591 484.802 28.8466 486.635 28.8466C489.021 28.8466 491.223 29.4716 493.24 30.7216C495.257 31.9574 496.869 33.8253 498.076 36.3253C499.284 38.8111 499.887 41.929 499.887 45.679C499.887 49.3295 499.298 52.4119 498.119 54.9261C496.954 57.4261 495.363 59.3224 493.346 60.6151C491.343 61.8935 489.099 62.5327 486.613 62.5327C484.852 62.5327 483.353 62.2415 482.118 61.6591C480.896 61.0767 479.895 60.3452 479.113 59.4645C478.332 58.5696 477.735 57.6676 477.324 56.7585H477.047V74.2727H467.97ZM476.855 45.6364C476.855 47.5824 477.125 49.2798 477.664 50.7287C478.204 52.1776 478.985 53.3068 480.008 54.1165C481.031 54.9119 482.274 55.3097 483.737 55.3097C485.214 55.3097 486.464 54.9048 487.487 54.0952C488.51 53.2713 489.284 52.1349 489.809 50.6861C490.349 49.223 490.619 47.5398 490.619 45.6364C490.619 43.7472 490.356 42.0852 489.831 40.6506C489.305 39.2159 488.531 38.0937 487.508 37.2841C486.485 36.4744 485.228 36.0696 483.737 36.0696C482.26 36.0696 481.01 36.4602 479.987 37.2415C478.978 38.0227 478.204 39.1307 477.664 40.5653C477.125 42 476.855 43.6903 476.855 45.6364ZM505.939 74.2727V29.2727H514.887V34.7699H515.292C515.69 33.8892 516.265 32.9943 517.018 32.0852C517.785 31.1619 518.779 30.3949 520.001 29.7841C521.237 29.1591 522.771 28.8466 524.603 28.8466C526.99 28.8466 529.191 29.4716 531.208 30.7216C533.225 31.9574 534.838 33.8253 536.045 36.3253C537.252 38.8111 537.856 41.929 537.856 45.679C537.856 49.3295 537.267 52.4119 536.088 54.9261C534.923 57.4261 533.332 59.3224 531.315 60.6151C529.312 61.8935 527.068 62.5327 524.582 62.5327C522.821 62.5327 521.322 62.2415 520.086 61.6591C518.865 61.0767 517.863 60.3452 517.082 59.4645C516.301 58.5696 515.704 57.6676 515.292 56.7585H515.015V74.2727H505.939ZM514.824 45.6364C514.824 47.5824 515.093 49.2798 515.633 50.7287C516.173 52.1776 516.954 53.3068 517.977 54.1165C519 54.9119 520.243 55.3097 521.706 55.3097C523.183 55.3097 524.433 54.9048 525.456 54.0952C526.478 53.2713 527.252 52.1349 527.778 50.6861C528.318 49.223 528.588 47.5398 528.588 45.6364C528.588 43.7472 528.325 42.0852 527.799 40.6506C527.274 39.2159 526.5 38.0937 525.477 37.2841C524.454 36.4744 523.197 36.0696 521.706 36.0696C520.228 36.0696 518.978 36.4602 517.956 37.2415C516.947 38.0227 516.173 39.1307 515.633 40.5653C515.093 42 514.824 43.6903 514.824 45.6364Z" fill="black"/>
<path d="M5.65696 131H0.713778L8.24574 109.182H14.1903L21.7116 131H16.7685L11.3033 114.168H11.1328L5.65696 131ZM5.34801 122.424H17.0241V126.025H5.34801V122.424ZM28.7908 121.54V131H24.2525V114.636H28.5778V117.523H28.7695C29.1317 116.572 29.739 115.819 30.5913 115.265C31.4435 114.704 32.4769 114.423 33.6914 114.423C34.8278 114.423 35.8185 114.672 36.6637 115.169C37.5089 115.666 38.1658 116.376 38.6346 117.3C39.1033 118.216 39.3377 119.31 39.3377 120.581V131H34.7994V121.391C34.8065 120.389 34.5508 119.608 34.0323 119.047C33.5138 118.479 32.8001 118.195 31.891 118.195C31.2802 118.195 30.7404 118.326 30.2717 118.589C29.81 118.852 29.4478 119.235 29.185 119.739C28.9293 120.237 28.7979 120.837 28.7908 121.54ZM54.5241 131.309C53.4801 131.309 52.5497 131.128 51.733 130.766C50.9162 130.396 50.2699 129.853 49.794 129.136C49.3253 128.411 49.0909 127.509 49.0909 126.43C49.0909 125.521 49.2578 124.757 49.5916 124.139C49.9254 123.521 50.38 123.024 50.9553 122.648C51.5305 122.271 52.1839 121.987 52.9155 121.795C53.6541 121.604 54.4283 121.469 55.2379 121.391C56.1896 121.291 56.9567 121.199 57.5391 121.114C58.1214 121.021 58.544 120.886 58.8068 120.709C59.0696 120.531 59.201 120.268 59.201 119.92V119.857C59.201 119.182 58.9879 118.66 58.5618 118.29C58.1428 117.921 57.5462 117.737 56.772 117.737C55.9553 117.737 55.3054 117.918 54.8224 118.28C54.3395 118.635 54.0199 119.082 53.8636 119.622L49.6662 119.281C49.8793 118.287 50.2983 117.428 50.9233 116.703C51.5483 115.972 52.3544 115.411 53.3416 115.02C54.3359 114.622 55.4865 114.423 56.7933 114.423C57.7024 114.423 58.5724 114.53 59.4034 114.743C60.2415 114.956 60.9837 115.286 61.63 115.734C62.2834 116.181 62.7983 116.756 63.1747 117.46C63.5511 118.156 63.7393 118.99 63.7393 119.963V131H59.4354V128.731H59.3075C59.0447 129.242 58.6932 129.693 58.2528 130.084C57.8125 130.467 57.2834 130.769 56.6655 130.989C56.0476 131.202 55.3338 131.309 54.5241 131.309ZM55.8239 128.177C56.4915 128.177 57.081 128.045 57.5923 127.783C58.1037 127.513 58.505 127.151 58.7962 126.696C59.0874 126.241 59.233 125.727 59.233 125.151V123.415C59.0909 123.507 58.8956 123.592 58.647 123.67C58.4055 123.741 58.1321 123.809 57.8267 123.873C57.5213 123.93 57.2159 123.983 56.9105 124.033C56.6051 124.075 56.3281 124.114 56.0795 124.15C55.5469 124.228 55.0817 124.352 54.6839 124.523C54.2862 124.693 53.9773 124.924 53.7571 125.215C53.5369 125.499 53.4268 125.854 53.4268 126.281C53.4268 126.898 53.6506 127.371 54.098 127.697C54.5526 128.017 55.1278 128.177 55.8239 128.177ZM70.4883 131L66.0352 114.636H70.6268L73.1623 125.631H73.3114L75.9535 114.636H80.4599L83.1445 125.567H83.283L85.7759 114.636H90.3569L85.9144 131H81.1097L78.2972 120.709H78.0948L75.2823 131H70.4883ZM99.8251 131.32C98.1419 131.32 96.693 130.979 95.4785 130.297C94.2711 129.608 93.3407 128.635 92.6873 127.378C92.0339 126.114 91.7072 124.619 91.7072 122.893C91.7072 121.21 92.0339 119.732 92.6873 118.461C93.3407 117.19 94.2605 116.199 95.4466 115.489C96.6397 114.778 98.0389 114.423 99.644 114.423C100.724 114.423 101.729 114.597 102.659 114.945C103.596 115.286 104.413 115.801 105.109 116.49C105.812 117.179 106.359 118.045 106.75 119.089C107.14 120.126 107.336 121.341 107.336 122.733V123.979H93.5183V121.167H103.064C103.064 120.513 102.922 119.935 102.638 119.43C102.354 118.926 101.959 118.532 101.455 118.248C100.958 117.957 100.379 117.811 99.7186 117.811C99.0297 117.811 98.4189 117.971 97.8862 118.29C97.3606 118.603 96.9487 119.026 96.6504 119.558C96.3521 120.084 96.1994 120.67 96.1923 121.316V123.99C96.1923 124.8 96.3414 125.499 96.6397 126.089C96.9451 126.678 97.3748 127.133 97.9288 127.452C98.4828 127.772 99.1397 127.932 99.8997 127.932C100.404 127.932 100.866 127.861 101.285 127.719C101.704 127.577 102.062 127.364 102.361 127.08C102.659 126.795 102.886 126.447 103.042 126.036L107.24 126.312C107.027 127.321 106.59 128.202 105.93 128.955C105.276 129.7 104.431 130.283 103.394 130.702C102.364 131.114 101.175 131.32 99.8251 131.32ZM123.912 119.303L119.758 119.558C119.687 119.203 119.534 118.884 119.3 118.599C119.065 118.308 118.756 118.077 118.373 117.907C117.996 117.729 117.545 117.641 117.02 117.641C116.317 117.641 115.724 117.79 115.241 118.088C114.758 118.379 114.516 118.77 114.516 119.26C114.516 119.651 114.672 119.981 114.985 120.251C115.297 120.521 115.834 120.737 116.594 120.901L119.555 121.497C121.146 121.824 122.332 122.349 123.113 123.074C123.895 123.798 124.285 124.75 124.285 125.929C124.285 127.001 123.969 127.942 123.337 128.752C122.712 129.562 121.853 130.194 120.759 130.648C119.672 131.096 118.419 131.32 116.998 131.32C114.832 131.32 113.106 130.869 111.821 129.967C110.542 129.058 109.793 127.822 109.573 126.259L114.037 126.025C114.172 126.685 114.498 127.19 115.017 127.538C115.535 127.879 116.199 128.049 117.009 128.049C117.805 128.049 118.444 127.896 118.927 127.591C119.417 127.278 119.665 126.877 119.672 126.387C119.665 125.975 119.491 125.638 119.15 125.375C118.809 125.105 118.284 124.899 117.574 124.757L114.74 124.192C113.142 123.873 111.952 123.319 111.171 122.531C110.397 121.742 110.01 120.737 110.01 119.516C110.01 118.464 110.294 117.559 110.862 116.799C111.437 116.039 112.243 115.453 113.28 115.041C114.324 114.629 115.546 114.423 116.945 114.423C119.012 114.423 120.638 114.86 121.824 115.734C123.018 116.607 123.714 117.797 123.912 119.303ZM134.537 131.32C132.882 131.32 131.451 130.968 130.243 130.265C129.043 129.555 128.116 128.567 127.463 127.303C126.809 126.032 126.483 124.558 126.483 122.882C126.483 121.192 126.809 119.714 127.463 118.45C128.116 117.179 129.043 116.192 130.243 115.489C131.451 114.778 132.882 114.423 134.537 114.423C136.191 114.423 137.619 114.778 138.819 115.489C140.027 116.192 140.957 117.179 141.61 118.45C142.264 119.714 142.591 121.192 142.591 122.882C142.591 124.558 142.264 126.032 141.61 127.303C140.957 128.567 140.027 129.555 138.819 130.265C137.619 130.968 136.191 131.32 134.537 131.32ZM134.558 127.804C135.311 127.804 135.939 127.591 136.444 127.165C136.948 126.732 137.328 126.142 137.583 125.396C137.846 124.651 137.978 123.802 137.978 122.85C137.978 121.898 137.846 121.05 137.583 120.304C137.328 119.558 136.948 118.969 136.444 118.536C135.939 118.102 135.311 117.886 134.558 117.886C133.798 117.886 133.159 118.102 132.64 118.536C132.129 118.969 131.742 119.558 131.479 120.304C131.223 121.05 131.096 121.898 131.096 122.85C131.096 123.802 131.223 124.651 131.479 125.396C131.742 126.142 132.129 126.732 132.64 127.165C133.159 127.591 133.798 127.804 134.558 127.804ZM145.542 131V114.636H149.867V117.523H150.059C150.4 116.565 150.968 115.808 151.763 115.254C152.559 114.7 153.51 114.423 154.618 114.423C155.74 114.423 156.696 114.704 157.484 115.265C158.272 115.819 158.798 116.572 159.061 117.523H159.231C159.565 116.586 160.169 115.837 161.042 115.276C161.923 114.707 162.963 114.423 164.164 114.423C165.691 114.423 166.93 114.91 167.882 115.883C168.841 116.849 169.32 118.219 169.32 119.995V131H164.792V120.89C164.792 119.981 164.551 119.299 164.068 118.844C163.585 118.39 162.981 118.163 162.257 118.163C161.433 118.163 160.79 118.425 160.328 118.951C159.867 119.469 159.636 120.155 159.636 121.007V131H155.236V120.794C155.236 119.991 155.005 119.352 154.544 118.876C154.089 118.401 153.489 118.163 152.743 118.163C152.239 118.163 151.784 118.29 151.38 118.546C150.982 118.795 150.666 119.146 150.431 119.601C150.197 120.048 150.08 120.574 150.08 121.178V131H145.542ZM180.362 131.32C178.679 131.32 177.23 130.979 176.016 130.297C174.808 129.608 173.878 128.635 173.224 127.378C172.571 126.114 172.244 124.619 172.244 122.893C172.244 121.21 172.571 119.732 173.224 118.461C173.878 117.19 174.798 116.199 175.984 115.489C177.177 114.778 178.576 114.423 180.181 114.423C181.261 114.423 182.266 114.597 183.196 114.945C184.134 115.286 184.95 115.801 185.646 116.49C186.349 117.179 186.896 118.045 187.287 119.089C187.678 120.126 187.873 121.341 187.873 122.733V123.979H174.055V121.167H183.601C183.601 120.513 183.459 119.935 183.175 119.43C182.891 118.926 182.496 118.532 181.992 118.248C181.495 117.957 180.916 117.811 180.256 117.811C179.567 117.811 178.956 117.971 178.423 118.29C177.898 118.603 177.486 119.026 177.188 119.558C176.889 120.084 176.737 120.67 176.729 121.316V123.99C176.729 124.8 176.879 125.499 177.177 126.089C177.482 126.678 177.912 127.133 178.466 127.452C179.02 127.772 179.677 127.932 180.437 127.932C180.941 127.932 181.403 127.861 181.822 127.719C182.241 127.577 182.599 127.364 182.898 127.08C183.196 126.795 183.423 126.447 183.58 126.036L187.777 126.312C187.564 127.321 187.127 128.202 186.467 128.955C185.813 129.7 184.968 130.283 183.931 130.702C182.901 131.114 181.712 131.32 180.362 131.32ZM201.006 131L196.553 114.636H201.144L203.68 125.631H203.829L206.471 114.636H210.977L213.662 125.567H213.801L216.294 114.636H220.874L216.432 131H211.627L208.815 120.709H208.612L205.8 131H201.006ZM227.962 131.309C226.918 131.309 225.987 131.128 225.17 130.766C224.354 130.396 223.707 129.853 223.232 129.136C222.763 128.411 222.528 127.509 222.528 126.43C222.528 125.521 222.695 124.757 223.029 124.139C223.363 123.521 223.817 123.024 224.393 122.648C224.968 122.271 225.621 121.987 226.353 121.795C227.092 121.604 227.866 121.469 228.675 121.391C229.627 121.291 230.394 121.199 230.977 121.114C231.559 121.021 231.982 120.886 232.244 120.709C232.507 120.531 232.638 120.268 232.638 119.92V119.857C232.638 119.182 232.425 118.66 231.999 118.29C231.58 117.921 230.984 117.737 230.21 117.737C229.393 117.737 228.743 117.918 228.26 118.28C227.777 118.635 227.457 119.082 227.301 119.622L223.104 119.281C223.317 118.287 223.736 117.428 224.361 116.703C224.986 115.972 225.792 115.411 226.779 115.02C227.773 114.622 228.924 114.423 230.231 114.423C231.14 114.423 232.01 114.53 232.841 114.743C233.679 114.956 234.421 115.286 235.067 115.734C235.721 116.181 236.236 116.756 236.612 117.46C236.989 118.156 237.177 118.99 237.177 119.963V131H232.873V128.731H232.745C232.482 129.242 232.131 129.693 231.69 130.084C231.25 130.467 230.721 130.769 230.103 130.989C229.485 131.202 228.771 131.309 227.962 131.309ZM229.261 128.177C229.929 128.177 230.518 128.045 231.03 127.783C231.541 127.513 231.942 127.151 232.234 126.696C232.525 126.241 232.67 125.727 232.67 125.151V123.415C232.528 123.507 232.333 123.592 232.085 123.67C231.843 123.741 231.57 123.809 231.264 123.873C230.959 123.93 230.653 123.983 230.348 124.033C230.043 124.075 229.766 124.114 229.517 124.15C228.984 124.228 228.519 124.352 228.121 124.523C227.724 124.693 227.415 124.924 227.195 125.215C226.974 125.499 226.864 125.854 226.864 126.281C226.864 126.898 227.088 127.371 227.536 127.697C227.99 128.017 228.565 128.177 229.261 128.177ZM242.914 137.136C242.338 137.136 241.799 137.09 241.294 136.998C240.797 136.913 240.385 136.803 240.059 136.668L241.081 133.28C241.614 133.443 242.093 133.532 242.52 133.546C242.953 133.56 243.326 133.461 243.638 133.248C243.958 133.035 244.217 132.673 244.416 132.161L244.682 131.469L238.812 114.636H243.585L246.973 126.653H247.143L250.563 114.636H255.368L249.007 132.768C248.702 133.649 248.287 134.416 247.761 135.07C247.243 135.73 246.586 136.238 245.79 136.593C244.995 136.955 244.036 137.136 242.914 137.136ZM273.337 114.636V118.045H263.483V114.636H273.337ZM265.72 110.716H270.258V125.972C270.258 126.391 270.322 126.717 270.45 126.952C270.578 127.179 270.756 127.339 270.983 127.431C271.217 127.523 271.487 127.57 271.792 127.57C272.006 127.57 272.219 127.552 272.432 127.516C272.645 127.474 272.808 127.442 272.922 127.42L273.635 130.798C273.408 130.869 273.089 130.95 272.677 131.043C272.265 131.142 271.764 131.202 271.175 131.224C270.081 131.266 269.122 131.121 268.298 130.787C267.481 130.453 266.846 129.935 266.391 129.232C265.937 128.528 265.713 127.641 265.72 126.568V110.716ZM283.511 131.32C281.856 131.32 280.425 130.968 279.218 130.265C278.018 129.555 277.091 128.567 276.437 127.303C275.784 126.032 275.457 124.558 275.457 122.882C275.457 121.192 275.784 119.714 276.437 118.45C277.091 117.179 278.018 116.192 279.218 115.489C280.425 114.778 281.856 114.423 283.511 114.423C285.166 114.423 286.594 114.778 287.794 115.489C289.001 116.192 289.932 117.179 290.585 118.45C291.238 119.714 291.565 121.192 291.565 122.882C291.565 124.558 291.238 126.032 290.585 127.303C289.932 128.567 289.001 129.555 287.794 130.265C286.594 130.968 285.166 131.32 283.511 131.32ZM283.532 127.804C284.285 127.804 284.914 127.591 285.418 127.165C285.922 126.732 286.302 126.142 286.558 125.396C286.821 124.651 286.952 123.802 286.952 122.85C286.952 121.898 286.821 121.05 286.558 120.304C286.302 119.558 285.922 118.969 285.418 118.536C284.914 118.102 284.285 117.886 283.532 117.886C282.773 117.886 282.133 118.102 281.615 118.536C281.104 118.969 280.716 119.558 280.454 120.304C280.198 121.05 280.07 121.898 280.07 122.85C280.07 123.802 280.198 124.651 280.454 125.396C280.716 126.142 281.104 126.732 281.615 127.165C282.133 127.591 282.773 127.804 283.532 127.804ZM305.998 121.54V131H301.46V109.182H305.87V117.523H306.062C306.431 116.558 307.028 115.801 307.852 115.254C308.675 114.7 309.709 114.423 310.952 114.423C312.088 114.423 313.079 114.672 313.924 115.169C314.776 115.659 315.437 116.366 315.906 117.289C316.381 118.205 316.616 119.303 316.609 120.581V131H312.07V121.391C312.077 120.382 311.822 119.597 311.303 119.036C310.792 118.475 310.075 118.195 309.151 118.195C308.533 118.195 307.987 118.326 307.511 118.589C307.042 118.852 306.673 119.235 306.403 119.739C306.14 120.237 306.005 120.837 305.998 121.54ZM324.846 131.309C323.802 131.309 322.872 131.128 322.055 130.766C321.238 130.396 320.592 129.853 320.116 129.136C319.648 128.411 319.413 127.509 319.413 126.43C319.413 125.521 319.58 124.757 319.914 124.139C320.248 123.521 320.702 123.024 321.278 122.648C321.853 122.271 322.506 121.987 323.238 121.795C323.976 121.604 324.751 121.469 325.56 121.391C326.512 121.291 327.279 121.199 327.861 121.114C328.444 121.021 328.866 120.886 329.129 120.709C329.392 120.531 329.523 120.268 329.523 119.92V119.857C329.523 119.182 329.31 118.66 328.884 118.29C328.465 117.921 327.868 117.737 327.094 117.737C326.278 117.737 325.628 117.918 325.145 118.28C324.662 118.635 324.342 119.082 324.186 119.622L319.988 119.281C320.202 118.287 320.621 117.428 321.246 116.703C321.871 115.972 322.677 115.411 323.664 115.02C324.658 114.622 325.809 114.423 327.116 114.423C328.025 114.423 328.895 114.53 329.726 114.743C330.564 114.956 331.306 115.286 331.952 115.734C332.606 116.181 333.121 116.756 333.497 117.46C333.873 118.156 334.062 118.99 334.062 119.963V131H329.758V128.731H329.63C329.367 129.242 329.015 129.693 328.575 130.084C328.135 130.467 327.606 130.769 326.988 130.989C326.37 131.202 325.656 131.309 324.846 131.309ZM326.146 128.177C326.814 128.177 327.403 128.045 327.915 127.783C328.426 127.513 328.827 127.151 329.118 126.696C329.41 126.241 329.555 125.727 329.555 125.151V123.415C329.413 123.507 329.218 123.592 328.969 123.67C328.728 123.741 328.454 123.809 328.149 123.873C327.844 123.93 327.538 123.983 327.233 124.033C326.927 124.075 326.65 124.114 326.402 124.15C325.869 124.228 325.404 124.352 325.006 124.523C324.608 124.693 324.3 124.924 324.079 125.215C323.859 125.499 323.749 125.854 323.749 126.281C323.749 126.898 323.973 127.371 324.42 127.697C324.875 128.017 325.45 128.177 326.146 128.177ZM342.121 121.54V131H337.583V114.636H341.908V117.523H342.1C342.462 116.572 343.069 115.819 343.921 115.265C344.774 114.704 345.807 114.423 347.021 114.423C348.158 114.423 349.149 114.672 349.994 115.169C350.839 115.666 351.496 116.376 351.965 117.3C352.433 118.216 352.668 119.31 352.668 120.581V131H348.129V121.391C348.137 120.389 347.881 119.608 347.362 119.047C346.844 118.479 346.13 118.195 345.221 118.195C344.61 118.195 344.07 118.326 343.602 118.589C343.14 118.852 342.778 119.235 342.515 119.739C342.259 120.237 342.128 120.837 342.121 121.54ZM362.275 131.266C361.032 131.266 359.906 130.947 358.897 130.308C357.896 129.661 357.1 128.713 356.511 127.463C355.929 126.206 355.637 124.665 355.637 122.839C355.637 120.964 355.939 119.406 356.543 118.163C357.147 116.913 357.949 115.979 358.951 115.361C359.959 114.736 361.064 114.423 362.264 114.423C363.18 114.423 363.944 114.58 364.554 114.892C365.172 115.197 365.669 115.581 366.046 116.043C366.429 116.497 366.721 116.945 366.919 117.385H367.058V109.182H371.586V131H367.111V128.379H366.919C366.706 128.834 366.404 129.285 366.014 129.732C365.63 130.173 365.13 130.538 364.512 130.83C363.901 131.121 363.155 131.266 362.275 131.266ZM363.713 127.655C364.444 127.655 365.062 127.456 365.566 127.058C366.078 126.653 366.468 126.089 366.738 125.364C367.015 124.64 367.154 123.791 367.154 122.818C367.154 121.845 367.019 121 366.749 120.283C366.479 119.565 366.088 119.011 365.577 118.621C365.066 118.23 364.444 118.035 363.713 118.035C362.967 118.035 362.338 118.237 361.827 118.642C361.316 119.047 360.929 119.608 360.666 120.325C360.403 121.043 360.272 121.874 360.272 122.818C360.272 123.77 360.403 124.612 360.666 125.343C360.936 126.067 361.323 126.636 361.827 127.048C362.338 127.452 362.967 127.655 363.713 127.655ZM379.855 109.182V131H375.317V109.182H379.855ZM390.948 131.32C389.265 131.32 387.816 130.979 386.602 130.297C385.394 129.608 384.464 128.635 383.81 127.378C383.157 126.114 382.83 124.619 382.83 122.893C382.83 121.21 383.157 119.732 383.81 118.461C384.464 117.19 385.384 116.199 386.57 115.489C387.763 114.778 389.162 114.423 390.767 114.423C391.847 114.423 392.852 114.597 393.782 114.945C394.719 115.286 395.536 115.801 396.232 116.49C396.935 117.179 397.482 118.045 397.873 119.089C398.263 120.126 398.459 121.341 398.459 122.733V123.979H384.641V121.167H394.187C394.187 120.513 394.045 119.935 393.761 119.43C393.477 118.926 393.082 118.532 392.578 118.248C392.081 117.957 391.502 117.811 390.842 117.811C390.153 117.811 389.542 117.971 389.009 118.29C388.484 118.603 388.072 119.026 387.773 119.558C387.475 120.084 387.322 120.67 387.315 121.316V123.99C387.315 124.8 387.464 125.499 387.763 126.089C388.068 126.678 388.498 127.133 389.052 127.452C389.606 127.772 390.263 127.932 391.023 127.932C391.527 127.932 391.989 127.861 392.408 127.719C392.827 127.577 393.185 127.364 393.484 127.08C393.782 126.795 394.009 126.447 394.165 126.036L398.363 126.312C398.15 127.321 397.713 128.202 397.053 128.955C396.399 129.7 395.554 130.283 394.517 130.702C393.487 131.114 392.298 131.32 390.948 131.32ZM411.166 137.136C410.59 137.136 410.051 137.09 409.546 136.998C409.049 136.913 408.637 136.803 408.311 136.668L409.333 133.28C409.866 133.443 410.345 133.532 410.771 133.546C411.205 133.56 411.578 133.461 411.89 133.248C412.21 133.035 412.469 132.673 412.668 132.161L412.934 131.469L407.064 114.636H411.837L415.225 126.653H415.395L418.815 114.636H423.619L417.259 132.768C416.954 133.649 416.539 134.416 416.013 135.07C415.494 135.73 414.838 136.238 414.042 136.593C413.247 136.955 412.288 137.136 411.166 137.136ZM432.808 131.32C431.153 131.32 429.722 130.968 428.515 130.265C427.314 129.555 426.388 128.567 425.734 127.303C425.081 126.032 424.754 124.558 424.754 122.882C424.754 121.192 425.081 119.714 425.734 118.45C426.388 117.179 427.314 116.192 428.515 115.489C429.722 114.778 431.153 114.423 432.808 114.423C434.463 114.423 435.89 114.778 437.091 115.489C438.298 116.192 439.229 117.179 439.882 118.45C440.535 119.714 440.862 121.192 440.862 122.882C440.862 124.558 440.535 126.032 439.882 127.303C439.229 128.567 438.298 129.555 437.091 130.265C435.89 130.968 434.463 131.32 432.808 131.32ZM432.829 127.804C433.582 127.804 434.211 127.591 434.715 127.165C435.219 126.732 435.599 126.142 435.855 125.396C436.118 124.651 436.249 123.802 436.249 122.85C436.249 121.898 436.118 121.05 435.855 120.304C435.599 119.558 435.219 118.969 434.715 118.536C434.211 118.102 433.582 117.886 432.829 117.886C432.069 117.886 431.43 118.102 430.912 118.536C430.4 118.969 430.013 119.558 429.751 120.304C429.495 121.05 429.367 121.898 429.367 122.85C429.367 123.802 429.495 124.651 429.751 125.396C430.013 126.142 430.4 126.732 430.912 127.165C431.43 127.591 432.069 127.804 432.829 127.804ZM454.307 124.033V114.636H458.845V131H454.488V128.028H454.317C453.948 128.987 453.334 129.757 452.474 130.339C451.622 130.922 450.581 131.213 449.353 131.213C448.259 131.213 447.297 130.964 446.466 130.467C445.635 129.97 444.985 129.263 444.516 128.347C444.055 127.431 443.82 126.334 443.813 125.055V114.636H448.351V124.246C448.358 125.212 448.618 125.975 449.129 126.536C449.64 127.097 450.326 127.378 451.185 127.378C451.732 127.378 452.243 127.254 452.719 127.005C453.195 126.749 453.579 126.373 453.87 125.876C454.168 125.379 454.314 124.764 454.307 124.033ZM474.085 131.309C473.041 131.309 472.11 131.128 471.294 130.766C470.477 130.396 469.83 129.853 469.355 129.136C468.886 128.411 468.651 127.509 468.651 126.43C468.651 125.521 468.818 124.757 469.152 124.139C469.486 123.521 469.941 123.024 470.516 122.648C471.091 122.271 471.744 121.987 472.476 121.795C473.215 121.604 473.989 121.469 474.798 121.391C475.75 121.291 476.517 121.199 477.1 121.114C477.682 121.021 478.105 120.886 478.367 120.709C478.63 120.531 478.762 120.268 478.762 119.92V119.857C478.762 119.182 478.548 118.66 478.122 118.29C477.703 117.921 477.107 117.737 476.333 117.737C475.516 117.737 474.866 117.918 474.383 118.28C473.9 118.635 473.58 119.082 473.424 119.622L469.227 119.281C469.44 118.287 469.859 117.428 470.484 116.703C471.109 115.972 471.915 115.411 472.902 115.02C473.896 114.622 475.047 114.423 476.354 114.423C477.263 114.423 478.133 114.53 478.964 114.743C479.802 114.956 480.544 115.286 481.191 115.734C481.844 116.181 482.359 116.756 482.735 117.46C483.112 118.156 483.3 118.99 483.3 119.963V131H478.996V128.731H478.868C478.605 129.242 478.254 129.693 477.813 130.084C477.373 130.467 476.844 130.769 476.226 130.989C475.608 131.202 474.894 131.309 474.085 131.309ZM475.384 128.177C476.052 128.177 476.642 128.045 477.153 127.783C477.664 127.513 478.066 127.151 478.357 126.696C478.648 126.241 478.794 125.727 478.794 125.151V123.415C478.651 123.507 478.456 123.592 478.208 123.67C477.966 123.741 477.693 123.809 477.387 123.873C477.082 123.93 476.776 123.983 476.471 124.033C476.166 124.075 475.889 124.114 475.64 124.15C475.107 124.228 474.642 124.352 474.244 124.523C473.847 124.693 473.538 124.924 473.318 125.215C473.097 125.499 472.987 125.854 472.987 126.281C472.987 126.898 473.211 127.371 473.659 127.697C474.113 128.017 474.688 128.177 475.384 128.177ZM491.359 121.54V131H486.821V114.636H491.146V117.523H491.338C491.7 116.572 492.307 115.819 493.16 115.265C494.012 114.704 495.045 114.423 496.26 114.423C497.396 114.423 498.387 114.672 499.232 115.169C500.077 115.666 500.734 116.376 501.203 117.3C501.672 118.216 501.906 119.31 501.906 120.581V131H497.368V121.391C497.375 120.389 497.119 119.608 496.601 119.047C496.082 118.479 495.368 118.195 494.459 118.195C493.849 118.195 493.309 118.326 492.84 118.589C492.378 118.852 492.016 119.235 491.753 119.739C491.498 120.237 491.366 120.837 491.359 121.54ZM511.513 131.266C510.27 131.266 509.144 130.947 508.136 130.308C507.134 129.661 506.339 128.713 505.749 127.463C505.167 126.206 504.876 124.665 504.876 122.839C504.876 120.964 505.178 119.406 505.781 118.163C506.385 116.913 507.188 115.979 508.189 115.361C509.197 114.736 510.302 114.423 511.502 114.423C512.418 114.423 513.182 114.58 513.793 114.892C514.411 115.197 514.908 115.581 515.284 116.043C515.668 116.497 515.959 116.945 516.158 117.385H516.296V109.182H520.824V131H516.349V128.379H516.158C515.945 128.834 515.643 129.285 515.252 129.732C514.869 130.173 514.368 130.538 513.75 130.83C513.139 131.121 512.393 131.266 511.513 131.266ZM512.951 127.655C513.683 127.655 514.3 127.456 514.805 127.058C515.316 126.653 515.707 126.089 515.977 125.364C516.254 124.64 516.392 123.791 516.392 122.818C516.392 121.845 516.257 121 515.987 120.283C515.717 119.565 515.327 119.011 514.815 118.621C514.304 118.23 513.683 118.035 512.951 118.035C512.205 118.035 511.577 118.237 511.065 118.642C510.554 119.047 510.167 119.608 509.904 120.325C509.641 121.043 509.51 121.874 509.51 122.818C509.51 123.77 509.641 124.612 509.904 125.343C510.174 126.067 510.561 126.636 511.065 127.048C511.577 127.452 512.205 127.655 512.951 127.655ZM534.3 137.136C533.725 137.136 533.185 137.09 532.681 136.998C532.184 136.913 531.772 136.803 531.445 136.668L532.468 133.28C533.001 133.443 533.48 133.532 533.906 133.546C534.339 133.56 534.712 133.461 535.025 133.248C535.344 133.035 535.604 132.673 535.803 132.161L536.069 131.469L530.199 114.636H534.972L538.359 126.653H538.53L541.95 114.636H546.754L540.394 132.768C540.089 133.649 539.673 134.416 539.148 135.07C538.629 135.73 537.972 136.238 537.177 136.593C536.381 136.955 535.423 137.136 534.3 137.136ZM555.943 131.32C554.288 131.32 552.857 130.968 551.65 130.265C550.449 129.555 549.522 128.567 548.869 127.303C548.216 126.032 547.889 124.558 547.889 122.882C547.889 121.192 548.216 119.714 548.869 118.45C549.522 117.179 550.449 116.192 551.65 115.489C552.857 114.778 554.288 114.423 555.943 114.423C557.598 114.423 559.025 114.778 560.225 115.489C561.433 116.192 562.363 117.179 563.017 118.45C563.67 119.714 563.997 121.192 563.997 122.882C563.997 124.558 563.67 126.032 563.017 127.303C562.363 128.567 561.433 129.555 560.225 130.265C559.025 130.968 557.598 131.32 555.943 131.32ZM555.964 127.804C556.717 127.804 557.346 127.591 557.85 127.165C558.354 126.732 558.734 126.142 558.99 125.396C559.252 124.651 559.384 123.802 559.384 122.85C559.384 121.898 559.252 121.05 558.99 120.304C558.734 119.558 558.354 118.969 557.85 118.536C557.346 118.102 556.717 117.886 555.964 117.886C555.204 117.886 554.565 118.102 554.047 118.536C553.535 118.969 553.148 119.558 552.885 120.304C552.63 121.05 552.502 121.898 552.502 122.85C552.502 123.802 552.63 124.651 552.885 125.396C553.148 126.142 553.535 126.732 554.047 127.165C554.565 127.591 555.204 127.804 555.964 127.804ZM577.441 124.033V114.636H581.98V131H577.623V128.028H577.452C577.083 128.987 576.468 129.757 575.609 130.339C574.757 130.922 573.716 131.213 572.488 131.213C571.394 131.213 570.431 130.964 569.6 130.467C568.77 129.97 568.12 129.263 567.651 128.347C567.189 127.431 566.955 126.334 566.948 125.055V114.636H571.486V124.246C571.493 125.212 571.752 125.975 572.264 126.536C572.775 127.097 573.461 127.378 574.32 127.378C574.867 127.378 575.378 127.254 575.854 127.005C576.33 126.749 576.713 126.373 577.005 125.876C577.303 125.379 577.449 124.764 577.441 124.033ZM585.61 131V114.636H590.01V117.491H590.18C590.479 116.476 590.979 115.709 591.682 115.19C592.385 114.665 593.195 114.402 594.111 114.402C594.339 114.402 594.584 114.416 594.846 114.445C595.109 114.473 595.34 114.512 595.539 114.562V118.589C595.326 118.525 595.031 118.468 594.655 118.418C594.278 118.369 593.934 118.344 593.621 118.344C592.954 118.344 592.357 118.489 591.831 118.781C591.313 119.065 590.901 119.462 590.596 119.974C590.297 120.485 590.148 121.075 590.148 121.742V131H585.61ZM613.532 114.636V118.045H603.678V114.636H613.532ZM605.915 110.716H610.454V125.972C610.454 126.391 610.518 126.717 610.645 126.952C610.773 127.179 610.951 127.339 611.178 127.431C611.412 127.523 611.682 127.57 611.988 127.57C612.201 127.57 612.414 127.552 612.627 127.516C612.84 127.474 613.003 127.442 613.117 127.42L613.831 130.798C613.604 130.869 613.284 130.95 612.872 131.043C612.46 131.142 611.959 131.202 611.37 131.224C610.276 131.266 609.317 131.121 608.493 130.787C607.677 130.453 607.041 129.935 606.586 129.232C606.132 128.528 605.908 127.641 605.915 126.568V110.716ZM623.706 131.32C622.052 131.32 620.621 130.968 619.413 130.265C618.213 129.555 617.286 128.567 616.633 127.303C615.979 126.032 615.653 124.558 615.653 122.882C615.653 121.192 615.979 119.714 616.633 118.45C617.286 117.179 618.213 116.192 619.413 115.489C620.621 114.778 622.052 114.423 623.706 114.423C625.361 114.423 626.789 114.778 627.989 115.489C629.197 116.192 630.127 117.179 630.78 118.45C631.434 119.714 631.76 121.192 631.76 122.882C631.76 124.558 631.434 126.032 630.78 127.303C630.127 128.567 629.197 129.555 627.989 130.265C626.789 130.968 625.361 131.32 623.706 131.32ZM623.728 127.804C624.481 127.804 625.109 127.591 625.613 127.165C626.118 126.732 626.498 126.142 626.753 125.396C627.016 124.651 627.148 123.802 627.148 122.85C627.148 121.898 627.016 121.05 626.753 120.304C626.498 119.558 626.118 118.969 625.613 118.536C625.109 118.102 624.481 117.886 623.728 117.886C622.968 117.886 622.329 118.102 621.81 118.536C621.299 118.969 620.912 119.558 620.649 120.304C620.393 121.05 620.265 121.898 620.265 122.85C620.265 123.802 620.393 124.651 620.649 125.396C620.912 126.142 621.299 126.732 621.81 127.165C622.329 127.591 622.968 127.804 623.728 127.804ZM642.531 131H634.797V109.182H642.595C644.79 109.182 646.679 109.619 648.263 110.492C649.846 111.359 651.064 112.605 651.917 114.232C652.776 115.858 653.206 117.804 653.206 120.07C653.206 122.342 652.776 124.295 651.917 125.929C651.064 127.562 649.839 128.816 648.241 129.69C646.65 130.563 644.747 131 642.531 131ZM639.41 127.048H642.339C643.703 127.048 644.85 126.806 645.78 126.323C646.718 125.833 647.421 125.077 647.89 124.054C648.366 123.024 648.604 121.696 648.604 120.07C648.604 118.457 648.366 117.14 647.89 116.117C647.421 115.094 646.721 114.342 645.791 113.859C644.861 113.376 643.714 113.134 642.35 113.134H639.41V127.048ZM663.931 131.32C662.276 131.32 660.845 130.968 659.638 130.265C658.438 129.555 657.511 128.567 656.857 127.303C656.204 126.032 655.877 124.558 655.877 122.882C655.877 121.192 656.204 119.714 656.857 118.45C657.511 117.179 658.438 116.192 659.638 115.489C660.845 114.778 662.276 114.423 663.931 114.423C665.586 114.423 667.013 114.778 668.214 115.489C669.421 116.192 670.352 117.179 671.005 118.45C671.658 119.714 671.985 121.192 671.985 122.882C671.985 124.558 671.658 126.032 671.005 127.303C670.352 128.567 669.421 129.555 668.214 130.265C667.013 130.968 665.586 131.32 663.931 131.32ZM663.952 127.804C664.705 127.804 665.334 127.591 665.838 127.165C666.342 126.732 666.722 126.142 666.978 125.396C667.241 124.651 667.372 123.802 667.372 122.85C667.372 121.898 667.241 121.05 666.978 120.304C666.722 119.558 666.342 118.969 665.838 118.536C665.334 118.102 664.705 117.886 663.952 117.886C663.192 117.886 662.553 118.102 662.035 118.536C661.523 118.969 661.136 119.558 660.874 120.304C660.618 121.05 660.49 121.898 660.49 122.85C660.49 123.802 660.618 124.651 660.874 125.396C661.136 126.142 661.523 126.732 662.035 127.165C662.553 127.591 663.192 127.804 663.952 127.804ZM688.551 119.303L684.396 119.558C684.325 119.203 684.173 118.884 683.938 118.599C683.704 118.308 683.395 118.077 683.011 117.907C682.635 117.729 682.184 117.641 681.658 117.641C680.955 117.641 680.362 117.79 679.879 118.088C679.396 118.379 679.155 118.77 679.155 119.26C679.155 119.651 679.311 119.981 679.624 120.251C679.936 120.521 680.472 120.737 681.232 120.901L684.194 121.497C685.785 121.824 686.971 122.349 687.752 123.074C688.533 123.798 688.924 124.75 688.924 125.929C688.924 127.001 688.608 127.942 687.976 128.752C687.351 129.562 686.491 130.194 685.398 130.648C684.311 131.096 683.058 131.32 681.637 131.32C679.471 131.32 677.745 130.869 676.46 129.967C675.181 129.058 674.432 127.822 674.212 126.259L678.675 126.025C678.81 126.685 679.137 127.19 679.656 127.538C680.174 127.879 680.838 128.049 681.648 128.049C682.443 128.049 683.082 127.896 683.565 127.591C684.055 127.278 684.304 126.877 684.311 126.387C684.304 125.975 684.13 125.638 683.789 125.375C683.448 125.105 682.923 124.899 682.212 124.757L679.379 124.192C677.781 123.873 676.591 123.319 675.81 122.531C675.036 121.742 674.648 120.737 674.648 119.516C674.648 118.464 674.933 117.559 675.501 116.799C676.076 116.039 676.882 115.453 677.919 115.041C678.963 114.629 680.185 114.423 681.584 114.423C683.651 114.423 685.277 114.86 686.463 115.734C687.656 116.607 688.352 117.797 688.551 119.303Z" fill="black"/>
</svg>
