<svg width="233" height="57" viewBox="0 0 233 57" fill="none" xmlns="http://www.w3.org/2000/svg">
<path d="M51.3884 25.8944V28.0434C51.3856 33.0805 49.7545 37.9816 46.7385 42.016C43.7226 46.0503 39.4833 49.0017 34.653 50.4298C29.8226 51.858 24.66 51.6865 19.9351 49.9409C15.2102 48.1953 11.1761 44.9691 8.43458 40.7435C5.69301 36.5179 4.39084 31.5193 4.72226 26.4931C5.05369 21.467 7.00095 16.6826 10.2736 12.8536C13.5463 9.02457 17.9691 6.35602 22.8823 5.24594C27.7955 4.13587 32.9359 4.64374 37.5369 6.69382M51.3884 9.34331L28.03 32.7251L21.0225 25.7175" stroke="black" stroke-width="2" stroke-linecap="round" stroke-linejoin="round"/>
<path d="M74.6444 23.9851V20.1818H92.5635V23.9851H85.8838V42H81.3241V23.9851H74.6444ZM100.45 42.3196C98.7948 42.3196 97.3637 41.968 96.1563 41.2649C94.9561 40.5547 94.0292 39.5675 93.3758 38.3033C92.7224 37.032 92.3957 35.5582 92.3957 33.8821C92.3957 32.1918 92.7224 30.7145 93.3758 29.4503C94.0292 28.179 94.9561 27.1918 96.1563 26.4886C97.3637 25.7784 98.7948 25.4233 100.45 25.4233C102.104 25.4233 103.532 25.7784 104.732 26.4886C105.94 27.1918 106.87 28.179 107.524 29.4503C108.177 30.7145 108.504 32.1918 108.504 33.8821C108.504 35.5582 108.177 37.032 107.524 38.3033C106.87 39.5675 105.94 40.5547 104.732 41.2649C103.532 41.968 102.104 42.3196 100.45 42.3196ZM100.471 38.804C101.224 38.804 101.852 38.5909 102.357 38.1648C102.861 37.7315 103.241 37.142 103.497 36.3963C103.759 35.6506 103.891 34.8018 103.891 33.8501C103.891 32.8984 103.759 32.0497 103.497 31.304C103.241 30.5582 102.861 29.9687 102.357 29.5355C101.852 29.1023 101.224 28.8857 100.471 28.8857C99.711 28.8857 99.0718 29.1023 98.5534 29.5355C98.042 29.9687 97.6549 30.5582 97.3921 31.304C97.1365 32.0497 97.0086 32.8984 97.0086 33.8501C97.0086 34.8018 97.1365 35.6506 97.3921 36.3963C97.6549 37.142 98.042 37.7315 98.5534 38.1648C99.0718 38.5909 99.711 38.804 100.471 38.804ZM119.274 42H111.54V20.1818H119.338C121.533 20.1818 123.422 20.6186 125.006 21.4922C126.59 22.3587 127.808 23.6051 128.66 25.2315C129.519 26.858 129.949 28.804 129.949 31.0696C129.949 33.3423 129.519 35.2955 128.66 36.929C127.808 38.5625 126.582 39.8161 124.984 40.6896C123.394 41.5632 121.49 42 119.274 42ZM116.153 38.0476H119.082C120.446 38.0476 121.593 37.8061 122.524 37.3232C123.461 36.8331 124.164 36.0767 124.633 35.054C125.109 34.0241 125.347 32.696 125.347 31.0696C125.347 29.4574 125.109 28.1399 124.633 27.1172C124.164 26.0945 123.465 25.3416 122.534 24.8587C121.604 24.3757 120.457 24.1342 119.093 24.1342H116.153V38.0476ZM140.674 42.3196C139.019 42.3196 137.588 41.968 136.381 41.2649C135.181 40.5547 134.254 39.5675 133.6 38.3033C132.947 37.032 132.62 35.5582 132.62 33.8821C132.62 32.1918 132.947 30.7145 133.6 29.4503C134.254 28.179 135.181 27.1918 136.381 26.4886C137.588 25.7784 139.019 25.4233 140.674 25.4233C142.329 25.4233 143.757 25.7784 144.957 26.4886C146.164 27.1918 147.095 28.179 147.748 29.4503C148.402 30.7145 148.728 32.1918 148.728 33.8821C148.728 35.5582 148.402 37.032 147.748 38.3033C147.095 39.5675 146.164 40.5547 144.957 41.2649C143.757 41.968 142.329 42.3196 140.674 42.3196ZM140.696 38.804C141.448 38.804 142.077 38.5909 142.581 38.1648C143.085 37.7315 143.465 37.142 143.721 36.3963C143.984 35.6506 144.115 34.8018 144.115 33.8501C144.115 32.8984 143.984 32.0497 143.721 31.304C143.465 30.5582 143.085 29.9687 142.581 29.5355C142.077 29.1023 141.448 28.8857 140.696 28.8857C139.936 28.8857 139.296 29.1023 138.778 29.5355C138.267 29.9687 137.88 30.5582 137.617 31.304C137.361 32.0497 137.233 32.8984 137.233 33.8501C137.233 34.8018 137.361 35.6506 137.617 36.3963C137.88 37.142 138.267 37.7315 138.778 38.1648C139.296 38.5909 139.936 38.804 140.696 38.804ZM162.468 42H157.525L165.057 20.1818H171.002L178.523 42H173.58L168.115 25.1676H167.944L162.468 42ZM162.16 33.424H173.836V37.0249H162.16V33.424ZM181.064 48.1364V25.6364H185.538V28.3849H185.741C185.94 27.9446 186.227 27.4972 186.604 27.0426C186.987 26.581 187.484 26.1974 188.095 25.892C188.713 25.5795 189.48 25.4233 190.396 25.4233C191.59 25.4233 192.69 25.7358 193.699 26.3608C194.707 26.9787 195.514 27.9126 196.117 29.1626C196.721 30.4055 197.023 31.9645 197.023 33.8395C197.023 35.6648 196.728 37.206 196.139 38.4631C195.556 39.7131 194.761 40.6612 193.752 41.3075C192.751 41.9467 191.629 42.2663 190.386 42.2663C189.505 42.2663 188.756 42.1207 188.138 41.8295C187.527 41.5384 187.026 41.1726 186.636 40.7322C186.245 40.2848 185.947 39.8338 185.741 39.3793H185.602V48.1364H181.064ZM185.506 33.8182C185.506 34.7912 185.641 35.6399 185.911 36.3643C186.181 37.0888 186.572 37.6534 187.083 38.0582C187.595 38.456 188.216 38.6548 188.948 38.6548C189.686 38.6548 190.311 38.4524 190.823 38.0476C191.334 37.6357 191.721 37.0675 191.984 36.343C192.254 35.6115 192.389 34.7699 192.389 33.8182C192.389 32.8736 192.257 32.0426 191.994 31.3253C191.732 30.608 191.345 30.0469 190.833 29.642C190.322 29.2372 189.693 29.0348 188.948 29.0348C188.209 29.0348 187.584 29.2301 187.073 29.6207C186.568 30.0114 186.181 30.5653 185.911 31.2827C185.641 32 185.506 32.8452 185.506 33.8182ZM200.048 48.1364V25.6364H204.523V28.3849H204.725C204.924 27.9446 205.212 27.4972 205.588 27.0426C205.972 26.581 206.469 26.1974 207.08 25.892C207.698 25.5795 208.465 25.4233 209.381 25.4233C210.574 25.4233 211.675 25.7358 212.683 26.3608C213.692 26.9787 214.498 27.9126 215.102 29.1626C215.705 30.4055 216.007 31.9645 216.007 33.8395C216.007 35.6648 215.712 37.206 215.123 38.4631C214.541 39.7131 213.745 40.6612 212.737 41.3075C211.735 41.9467 210.613 42.2663 209.37 42.2663C208.489 42.2663 207.74 42.1207 207.122 41.8295C206.511 41.5384 206.011 41.1726 205.62 40.7322C205.229 40.2848 204.931 39.8338 204.725 39.3793H204.587V48.1364H200.048ZM204.491 33.8182C204.491 34.7912 204.626 35.6399 204.896 36.3643C205.166 37.0888 205.556 37.6534 206.068 38.0582C206.579 38.456 207.2 38.6548 207.932 38.6548C208.671 38.6548 209.296 38.4524 209.807 38.0476C210.318 37.6357 210.705 37.0675 210.968 36.343C211.238 35.6115 211.373 34.7699 211.373 33.8182C211.373 32.8736 211.242 32.0426 210.979 31.3253C210.716 30.608 210.329 30.0469 209.818 29.642C209.306 29.2372 208.678 29.0348 207.932 29.0348C207.193 29.0348 206.568 29.2301 206.057 29.6207C205.553 30.0114 205.166 30.5653 204.896 31.2827C204.626 32 204.491 32.8452 204.491 33.8182Z" fill="black"/>
</svg>
