<svg width="200" height="200" viewBox="0 0 200 200" fill="none" xmlns="http://www.w3.org/2000/svg">
<g clip-path="url(#clip0_127_8850)">
<path d="M197.773 162.891L114.453 20.7031C108.074 9.76562 91.9765 9.76562 85.5546 20.7031L2.27333 162.891C-4.13683 173.789 3.84716 187.5 16.6952 187.5H183.336C196.133 187.5 204.141 173.828 197.773 162.891ZM90.6249 65.625C90.6249 60.4492 94.8241 56.25 99.9999 56.25C105.176 56.25 109.375 60.4688 109.375 65.625V115.625C109.375 120.801 105.176 125 100.351 125C95.5272 125 90.6249 120.82 90.6249 115.625V65.625ZM99.9999 162.5C93.2186 162.5 87.7186 157 87.7186 150.219C87.7186 143.437 93.2147 137.937 99.9999 137.937C106.785 137.937 112.281 143.437 112.281 150.219C112.266 156.992 106.797 162.5 99.9999 162.5Z" fill="#ECC94B"/>
</g>
<defs>
<clipPath id="clip0_127_8850">
<rect width="200" height="200" fill="white"/>
</clipPath>
</defs>
</svg>
