<svg width="16" height="16" viewBox="0 0 16 16" fill="none" xmlns="http://www.w3.org/2000/svg">
<path d="M12.6667 6.66667H13.3333C13.5101 6.66667 13.6797 6.73691 13.8047 6.86193C13.9298 6.98696 14 7.15653 14 7.33334V14C14 14.1768 13.9298 14.3464 13.8047 14.4714C13.6797 14.5964 13.5101 14.6667 13.3333 14.6667H2.66667C2.48986 14.6667 2.32029 14.5964 2.19526 14.4714C2.07024 14.3464 2 14.1768 2 14V7.33334C2 7.15653 2.07024 6.98696 2.19526 6.86193C2.32029 6.73691 2.48986 6.66667 2.66667 6.66667H3.33333V6C3.33333 5.38717 3.45404 4.78033 3.68856 4.21415C3.92308 3.64796 4.26683 3.13351 4.70017 2.70017C5.13351 2.26683 5.64796 1.92309 6.21414 1.68856C6.78033 1.45404 7.38716 1.33334 8 1.33334C8.61284 1.33334 9.21967 1.45404 9.78586 1.68856C10.352 1.92309 10.8665 2.26683 11.2998 2.70017C11.7332 3.13351 12.0769 3.64796 12.3114 4.21415C12.546 4.78033 12.6667 5.38717 12.6667 6V6.66667ZM11.3333 6.66667V6C11.3333 5.11595 10.9821 4.2681 10.357 3.64298C9.7319 3.01786 8.88406 2.66667 8 2.66667C7.11595 2.66667 6.2681 3.01786 5.64298 3.64298C5.01786 4.2681 4.66667 5.11595 4.66667 6V6.66667H11.3333ZM7.33333 9.33334V12H8.66667V9.33334H7.33333Z" fill="#2D3748"/>
</svg>
