<svg width="17" height="16" viewBox="0 0 17 16" fill="none" xmlns="http://www.w3.org/2000/svg">
<path d="M11.1667 11.3333L14.5 8M14.5 8L11.1667 4.66667M14.5 8H6.5M8.5 11.3333C8.5 11.5304 8.5 11.6289 8.49268 11.7143C8.41655 12.6013 7.76324 13.3312 6.89002 13.5049C6.80602 13.5216 6.70801 13.5324 6.51223 13.5542L5.8313 13.6299C4.80832 13.7435 4.2968 13.8004 3.89044 13.6703C3.34862 13.4969 2.90628 13.101 2.67412 12.5817C2.5 12.1921 2.5 11.6775 2.5 10.6482V5.3518C2.5 4.32251 2.5 3.80787 2.67412 3.41835C2.90628 2.89899 3.34862 2.50307 3.89044 2.32969C4.29681 2.19965 4.8083 2.25648 5.83129 2.37015L6.51223 2.44581C6.70808 2.46757 6.806 2.47845 6.89002 2.49515C7.76324 2.66877 8.41655 3.39869 8.49268 4.28574C8.5 4.37109 8.5 4.46962 8.5 4.66667" stroke="white" stroke-width="2" stroke-linecap="round" stroke-linejoin="round"/>
</svg>
