<svg width="16" height="16" viewBox="0 0 16 16" fill="none" xmlns="http://www.w3.org/2000/svg">
<path d="M13.3334 14.6667H2.66675V13.3333C2.66675 12.4493 3.01794 11.6014 3.64306 10.9763C4.26818 10.3512 5.11603 10 6.00008 10H10.0001C10.8841 10 11.732 10.3512 12.3571 10.9763C12.9822 11.6014 13.3334 12.4493 13.3334 13.3333V14.6667ZM8.00008 8.66666C7.47479 8.66666 6.95465 8.5632 6.46935 8.36218C5.98405 8.16116 5.54309 7.86653 5.17165 7.49509C4.80022 7.12366 4.50558 6.6827 4.30456 6.1974C4.10354 5.7121 4.00008 5.19195 4.00008 4.66666C4.00008 4.14138 4.10354 3.62123 4.30456 3.13593C4.50558 2.65063 4.80022 2.20967 5.17165 1.83824C5.54309 1.4668 5.98405 1.17216 6.46935 0.971146C6.95465 0.770127 7.47479 0.666664 8.00008 0.666664C9.06095 0.666664 10.0784 1.08809 10.8285 1.83824C11.5787 2.58838 12.0001 3.6058 12.0001 4.66666C12.0001 5.72753 11.5787 6.74495 10.8285 7.49509C10.0784 8.24524 9.06095 8.66666 8.00008 8.66666V8.66666Z" fill="#2D3748"/>
</svg>
