<svg width="16" height="16" viewBox="0 0 16 16" fill="none" xmlns="http://www.w3.org/2000/svg">
<path d="M6.00001 10.3333H5.00001C4.06964 10.3333 3.60445 10.3333 3.22592 10.4482C2.37365 10.7067 1.7067 11.3736 1.44817 12.2259C1.33334 12.6044 1.33334 13.0696 1.33334 14M9.66668 5C9.66668 6.65685 8.32353 8 6.66668 8C5.00982 8 3.66668 6.65685 3.66668 5C3.66668 3.34315 5.00982 2 6.66668 2C8.32353 2 9.66668 3.34315 9.66668 5ZM7.33334 14L9.40091 13.4093C9.49992 13.381 9.54943 13.3668 9.5956 13.3456C9.6366 13.3268 9.67558 13.3039 9.71195 13.2772C9.7529 13.2471 9.78931 13.2107 9.86212 13.1379L14.1667 8.83336C14.627 8.37311 14.627 7.62689 14.1667 7.16665C13.7065 6.70642 12.9603 6.70642 12.5 7.16666L8.19546 11.4712C8.12264 11.544 8.08624 11.5804 8.05617 11.6214C8.02947 11.6578 8.00653 11.6967 7.98771 11.7377C7.96651 11.7839 7.95237 11.8334 7.92408 11.9324L7.33334 14Z" stroke="white" stroke-width="2" stroke-linecap="round" stroke-linejoin="round"/>
</svg>
